# xmcd
#
# Track frame offsets:
#	150
#	14811
#	27307
#	41117
#	49619
#	59278
#	75849
#	89518
#	102633
#	114782
#	127262
#	138608
#	148545
#
# Disc length: 2122 seconds
#
# Revision: 1
# Processed by: cddbd v1.5.2PL0 Copyright (c) Steve Scherf et al.
# Submitted via: audiograbber 1.83.01
#
DISCID=b708480d
DTITLE=Chet Atkins - Class Guitar
DYEAR=1900
DGENRE=Country
TTITLE0=Yellow Bird
TTITLE1=Malaguenas
TTITLE2=Morenita Do Brazi
TTITLE3=Testament of Amelia
TTITLE4=Acutely Cute
TTITLE5=Little Music Box - Lagrima
TTITLE6=El Huma Hua Queno
TTITLE7=Ave Maria
TTITLE8=Scherzino Mexicano
TTITLE9=Manha de Carnaval
TTITLE10=Chancion Triste
TTITLE11=To Be in Love
TTITLE12=I Feel Pretty
EXTD=
EXTT0=
EXTT1=
EXTT2=
EXTT3=
EXTT4=
EXTT5=
EXTT6=
EXTT7=
EXTT8=
EXTT9=
EXTT10=
EXTT11=
EXTT12=
PLAYORDER=
